<svg height="512" viewBox="0 0 58 58" width="512" xmlns="http://www.w3.org/2000/svg"><g id="Page-1" fill="none" fill-rule="evenodd"><g id="004---Mail" fill-rule="nonzero"><path id="Shape" d="m35 11c-.5522847 0-1-.4477153-1-1v-4c0-.55228475.4477153-1 1-1s1 .44771525 1 1v4c0 .5522847-.4477153 1-1 1z" fill="#95a5a5"/><path id="Shape" d="m35 0h8c.5522847 0 1 .44771525 1 1v4c0 .55228475-.4477153 1-1 1h-9v-5c0-.55228475.4477153-1 1-1z" fill="#f0c419"/><path id="Shape" d="m39.778 58h-8.556c-.626145.0437054-1.1709439-.4244114-1.222-1.05v-19.95h11v19.95c-.0510561.6255886-.595855 1.0937054-1.222 1.05z" fill="#a56a43"/><path id="Shape" d="m35 55c-.5522847 0-1-.4477153-1-1v-16c0-.5522847.4477153-1 1-1s1 .4477153 1 1v16c0 .5522847-.4477153 1-1 1z" fill="#805333"/><path id="Shape" d="m29 38h28c.5522847 0 1-.4477153 1-1v-16c0-6.0751322-4.9248678-11-11-11h-28z" fill="#e64c3c"/><rect id="Rectangle-path" fill="#ecf0f1" height="6" rx="1" width="10" x="44" y="28"/><path id="Shape" d="m8.045 20c.51707857-5.664312 5.2671357-10.0002838 10.955-10 6.0751322 0 11 4.9248678 11 11v16c0 .5522847-.4477153 1-1 1h-5z" fill="#802f34"/><path id="Shape" d="m25.67 20.9c-.3699225-.5617203-.9974137-.8998892-1.67-.9h-22c-1.1045695 0-2 .8954305-2 2v14c.00392678.5538752.23534078 1.0817884.64 1.46.36529141.3508954.85349933.5447427 1.36.54h22c.5065007.0047427.9947086-.1891046 1.36-.54.4046592-.3782116.6360732-.9061248.64-1.46v-14c-.0000978-.3910431-.1148286-.773479-.33-1.1z" fill="#f3d55b"/><path id="Shape" d="m10.27 29.31-9.63 8.15c-.40465922-.3782116-.63607322-.9061248-.64-1.46v-14c.00009776-.3910431.11482856-.773479.33-1.1z" fill="#f0c419"/><path id="Shape" d="m25.36 37.46c-.3652914.3508954-.8534993.5447427-1.36.54h-22c-.50650067.0047427-.99470859-.1891046-1.36-.54l9.63-8.15 1.44 1.22c.7450442.6288465 1.8349558.6288465 2.58 0l1.44-1.22z" fill="#f29c1f"/><path id="Shape" d="m26 22v14c-.0039268.5538752-.2353408 1.0817884-.64 1.46l-9.63-8.15 9.94-8.41c.2151714.326521.3299022.7089569.33 1.1z" fill="#f0c419"/><path id="Shape" d="m16 25h-6c-.55228475 0-1-.4477153-1-1s.44771525-1 1-1h6c.5522847 0 1 .4477153 1 1s-.4477153 1-1 1z" fill="#ecf0f1"/></g></g></svg>