<svg id="Capa_1" enable-background="new 0 0 512 512" height="512" viewBox="0 0 512 512" width="512" xmlns="http://www.w3.org/2000/svg"><g><path d="m364.967 372.598h60.266v105.514h-60.266z" fill="#b1e4f9"/><path d="m86.767 372.598h60.266v105.514h-60.266z" fill="#b1e4f9"/><g fill="#93d8e4"><path d="m86.767 372.598h60.266v60.266h-60.266z"/><path d="m86.767 372.598h22.249v105.514h-22.249z"/><path d="m364.967 372.598h60.266v60.266h-60.266z"/><path d="m364.967 372.598h22.249v105.514h-22.249z"/></g><g><path d="m488.191 464.381h-464.382c-13.149 0-23.809 10.66-23.809 23.81 0 13.149 10.66 23.809 23.809 23.809h464.382c13.149 0 23.809-10.66 23.809-23.809 0-13.15-10.66-23.81-23.809-23.81z" fill="#bcdf95"/><path d="m98.784 505.024c4.306 4.306 10.261 6.974 16.833 6.974h-91.81c-6.573 0-12.527-2.668-16.833-6.974s-6.974-10.261-6.974-16.833c0-13.155 10.662-23.808 23.807-23.808h91.81c-13.145 0-23.807 10.652-23.807 23.808 0 6.572 2.668 12.527 6.974 16.833z" fill="#93c8a5"/></g><path d="m321.552 0h-131.104c-57.261 0-103.681 46.42-103.681 103.682v300.433h338.467v-300.433c-.001-57.262-46.421-103.682-103.682-103.682z" fill="#b1e4f9"/><path d="m227.448.004c-57.257 0-103.677 46.42-103.677 103.678v300.442h-37.004v-300.442c0-57.258 46.42-103.678 103.688-103.678h36.993z" fill="#93d8e4"/><path d="m352.607 180.754h-193.214c-14.379 0-26.036-11.657-26.036-26.036 0-14.379 11.657-26.036 26.036-26.036h193.214c14.379 0 26.036 11.657 26.036 26.036 0 14.38-11.657 26.036-26.036 26.036z" fill="#617881"/><path d="m378.64 154.722c0 7.181-2.915 13.691-7.623 18.409-4.708 4.708-11.219 7.623-18.409 7.623h-193.222c-14.371 0-26.033-11.661-26.033-26.033 0-4.749 1.267-9.189 3.492-13.022 4.502 7.788 12.908 13.022 22.54 13.022h193.221c7.191 0 13.701-2.915 18.409-7.634 1.597-1.597 2.998-3.41 4.131-5.388 2.226 3.834 3.494 8.274 3.494 13.023z" fill="#475959"/><path d="m166.93 238.307h178.14v105.514h-178.14z" fill="#ffece7"/><path d="m345.07 351.548h-178.14c-4.268 0-7.726-3.459-7.726-7.726v-105.515c0-4.267 3.459-7.726 7.726-7.726h178.14c4.268 0 7.726 3.459 7.726 7.726v105.514c.001 4.268-3.458 7.727-7.726 7.727zm-170.414-15.453h162.688v-90.061h-162.688z" fill="#93d8e4"/><path d="m256 303.942c-1.362 0-2.723-.36-3.938-1.078l-89.07-52.757 7.875-13.296 85.133 50.424 85.133-50.425 7.875 13.296-89.07 52.757c-1.215.719-2.576 1.079-3.938 1.079z" fill="#93d8e4"/></g></svg>