<?xml version="1.0" encoding="UTF-8"?>
<svg xmlns="http://www.w3.org/2000/svg" id="Icons" viewBox="0 0 60 60" width="512" height="512"><path d="M33.045,59.49a.5.5,0,0,1-.318-.886l1.333-1.1-2.78,1.6a.5.5,0,0,1-.558-.826L33.1,56.418,31.28,57.467a.5.5,0,0,1-.559-.825L33.186,54.7,31.28,55.8a.5.5,0,0,1-.571-.816l3.584-3.012L31.28,53.712a.5.5,0,0,1-.562-.823l2.813-2.255-2.251,1.3a.5.5,0,0,1-.567-.82l3.234-2.656L31.28,50a.5.5,0,0,1-.56-.824l2.646-2.1-2.086,1.2a.5.5,0,0,1-.559-.825L33.2,45.5,31.28,46.605a.5.5,0,0,1-.657-.142.5.5,0,0,1,.08-.669l3.144-2.713L31.28,44.563a.5.5,0,0,1-.619-.771l1.575-1.719-.956.552a.5.5,0,0,1-.737-.546l.3-1.3a.5.5,0,0,1-.065-.9l.5-.29a.5.5,0,0,1,.738.547l-.243,1.042,2.772-1.6a.5.5,0,0,1,.619.771l-1.575,1.718,4.334-2.5a.5.5,0,0,1,.577.812L35.36,43.1l3.36-1.94a.5.5,0,0,1,.559.825L36.8,43.934l1.918-1.108a.5.5,0,0,1,.56.824l-2.646,2.1,2.086-1.2a.5.5,0,0,1,.567.819l-3.234,2.656,2.667-1.54a.5.5,0,0,1,.562.824l-2.81,2.252,2.248-1.3a.5.5,0,0,1,.571.815L35.707,52.09l3.013-1.739a.5.5,0,0,1,.559.825l-2.468,1.943,1.909-1.1a.5.5,0,0,1,.558.826L36.9,54.706l1.818-1.049a.5.5,0,0,1,.66.148.5.5,0,0,1-.092.671l-1.329,1.1.761-.439a.5.5,0,0,1,.665.711L38.3,57.465l.265-.153a.5.5,0,1,1,.5.865L36.94,59.4a.5.5,0,0,1-.665-.711l1.082-1.616L33.3,59.423A.489.489,0,0,1,33.045,59.49Z" fill="#824d41"/><path d="M31.029,59.468a.5.5,0,0,1-.406-.791l.6-.834-2.546,1.47a.5.5,0,0,1-.609-.782l2.03-2.085-2.722,1.572a.5.5,0,0,1-.578-.811L28.7,55.551l-1.422.821a.5.5,0,0,1-.586-.8l2.454-2.219L27.28,54.427a.5.5,0,0,1-.59-.8l2.666-2.468-2.076,1.2a.5.5,0,0,1-.57-.816l1.454-1.211-.884.51a.5.5,0,0,1-.58-.809l2.135-1.874-1.555.9a.5.5,0,0,1-.653-.137.5.5,0,0,1,.065-.665l2.57-2.353L27.28,47.044a.5.5,0,0,1-.593-.8l2.8-2.634L27.28,44.888a.5.5,0,0,1-.621-.768l1.888-2.092-1.267.732a.5.5,0,0,1-.738-.54l.313-1.433a.5.5,0,0,1-.075-.9l.5-.291a.5.5,0,0,1,.738.54l-.261,1.193,3.032-1.751a.5.5,0,0,1,.621.768l-1.889,2.093,3.2-1.844a.5.5,0,0,1,.592.8l-2.8,2.633L32.72,42.75a.5.5,0,0,1,.588.8L30.74,45.9l1.98-1.142a.5.5,0,0,1,.58.808l-2.137,1.876,1.557-.9a.5.5,0,0,1,.57.816L31.84,48.57l.88-.507a.5.5,0,0,1,.59.8l-2.668,2.47,2.078-1.2a.5.5,0,0,1,.586.8l-2.452,2.217,1.866-1.077a.5.5,0,0,1,.578.811L31.39,54.543l1.33-.768a.5.5,0,0,1,.608.782L31.3,56.643l1.422-.821a.5.5,0,0,1,.656.724l-.69.966a.5.5,0,0,1,.248.932l-1.655.956A.49.49,0,0,1,31.029,59.468Z" fill="#a9725e"/><path d="M21.953,41.493a.5.5,0,0,1-.261-.927l2.75-1.679L20.258,41.3a.5.5,0,0,1-.516-.857l15.9-9.973-15.695,9.06a.5.5,0,0,1-.509-.859L22.2,36.989l-2.453,1.416a.5.5,0,0,1-.518-.854l19.6-12.468L19.377,36.312a.5.5,0,0,1-.516-.857l15.462-9.684L19.07,34.576a.5.5,0,0,1-.514-.856L32.519,25,18.78,32.932a.5.5,0,0,1-.513-.858l10.506-6.511L18.524,31.48a.5.5,0,0,1-.513-.857l10.225-6.348L18.269,30.03a.5.5,0,0,1-.518-.854l15.012-9.53L17.945,28.2a.5.5,0,0,1-.515-.856l10.354-6.506L17.676,26.674a.5.5,0,0,1-.52-.855l11.227-7.168L17.381,25a.5.5,0,0,1-.518-.855l7.2-4.566-6.936,4a.5.5,0,0,1-.517-.856l3.83-2.415-3.53,2.038a.5.5,0,0,1-.53-.846l10.5-7.119L16.56,20.35a.5.5,0,0,1-.534-.845l8.347-5.747-8.146,4.7a.5.5,0,0,1-.534-.845l5.634-3.882-5.386,3.11a.5.5,0,0,1-.547-.834l5.685-4.226-5.474,3.159a.5.5,0,0,1-.543-.838l2.518-1.824-2.218,1.28a.5.5,0,0,1-.563-.823l2.518-2.024L15.087,12a.5.5,0,0,1-.568-.818l.894-.74-.546.315a.5.5,0,0,1-.662-.716l1.013-1.477-.669.386a.5.5,0,0,1-.744-.512l.108-.676a.509.509,0,0,1-.265-.221.5.5,0,0,1,.184-.684l.454-.261a.5.5,0,0,1,.744.512l-.072.452L16.626,6.6a.5.5,0,0,1,.662.715L16.275,8.79l3.8-2.192a.5.5,0,0,1,.569.818l-.894.738,2.7-1.556a.5.5,0,0,1,.564.822L20.488,9.447,25.425,6.6a.5.5,0,0,1,.543.838L23.452,9.259,28.062,6.6a.5.5,0,0,1,.548.834l-5.684,4.225L31.689,6.6a.5.5,0,0,1,.534.844l-5.634,3.881L34.775,6.6a.5.5,0,0,1,.534.844l-8.35,5.749L38.381,6.6a.5.5,0,0,1,.53.846l-10.5,7.118L42.207,6.6a.5.5,0,0,1,.517.855L38.892,9.869,44.559,6.6a.5.5,0,0,1,.517.854l-7.2,4.564L47.261,6.6a.5.5,0,0,1,.519.854L36.545,14.626,50.451,6.6a.5.5,0,0,1,.516.856l-10.351,6.5L52.87,6.883a.5.5,0,0,1,.518.854l-15,9.522L54.867,7.745a.5.5,0,0,1,.514.858L45.146,14.955l10.93-6.309a.5.5,0,0,1,.514.857L46.077,16.017l10.966-6.33a.5.5,0,0,1,.515.856L43.575,19.274l14.307-8.258a.5.5,0,0,1,.515.856L42.946,21.55l15.522-8.961a.5.5,0,0,1,.518.854L39.4,25.9,58.72,14.749a.5.5,0,0,1,.509.859l-2.8,1.7,2.29-1.321a.5.5,0,0,1,.515.857L43.347,26.816,58.72,17.941a.5.5,0,0,1,.51.86l-2.774,1.7,2.264-1.307a.5.5,0,0,1,.511.86l-2.359,1.445,1.848-1.066a.5.5,0,0,1,.514.857l-7.017,4.371,6.5-3.754a.5.5,0,0,1,.52.854L47.921,30.028l10.8-6.234a.5.5,0,0,1,.527.849L47.005,32.806,58.72,26.043a.5.5,0,0,1,.529.848L49.728,33.3l8.992-5.192a.5.5,0,0,1,.523.852L55.354,31.5,58.72,29.56a.5.5,0,0,1,.542.838l-7.1,5.094,6.556-3.785a.5.5,0,0,1,.539.841l-3.706,2.627,3.167-1.828a.5.5,0,0,1,.563.822L55.4,37.294l3.324-1.918a.5.5,0,0,1,.558.826l-1.006.787.448-.258a.5.5,0,0,1,.621.768L58.029,38.95l.691-.4a.5.5,0,0,1,.5.865L55.778,41.4a.5.5,0,0,1-.621-.767l1.312-1.45-3.847,2.219a.5.5,0,0,1-.559-.826l1-.785-2.8,1.613a.5.5,0,0,1-.563-.822L53.6,37.46l-6.842,3.949a.5.5,0,0,1-.539-.841l3.7-2.626L43.91,41.411a.5.5,0,0,1-.542-.839l7.1-5.092L40.187,41.414a.5.5,0,0,1-.524-.851l3.887-2.541-5.878,3.394a.5.5,0,0,1-.529-.848l9.526-6.413L34.088,41.418a.5.5,0,0,1-.527-.849L45.8,32.408,30.188,41.421a.5.5,0,0,1-.52-.854l11.323-7.274-14.083,8.13a.5.5,0,0,1-.514-.858l7.018-4.372-9.061,5.232a.5.5,0,0,1-.512-.86l2.374-1.454L22.2,41.426A.494.494,0,0,1,21.953,41.493Z" fill="#cd4c60"/><path d="M10.886,41.47a.5.5,0,0,1-.291-.907l2.856-2.049-5,2.888a.5.5,0,0,1-.538-.84l4.818-3.4L6.7,40.639a.5.5,0,0,1-.54-.84l6.851-4.866L6.281,38.816a.5.5,0,0,1-.543-.837l7.935-5.725L6.287,36.518a.5.5,0,0,1-.524-.851l1.147-.752-.62.357a.5.5,0,0,1-.524-.85l1.487-.978L6.293,34a.5.5,0,0,1-.526-.85l2.459-1.629L6.3,32.632a.5.5,0,0,1-.527-.849L8.758,29.79,6.3,31.209a.5.5,0,0,1-.526-.85l2.171-1.436L6.3,29.871a.5.5,0,0,1-.54-.84l7.331-5.22L6.308,27.729a.5.5,0,0,1-.528-.849l2.741-1.823L6.312,26.332a.5.5,0,0,1-.525-.851l1.027-.672-.5.288a.5.5,0,0,1-.532-.846l5.052-3.457L6.318,23.4a.5.5,0,0,1-.533-.844l4.976-3.421L6.322,21.7a.5.5,0,0,1-.537-.842l5.5-3.862L6.326,19.857a.5.5,0,0,1-.545-.836l6.084-4.438L6.332,17.777a.5.5,0,0,1-.528-.848l.418-.28a.5.5,0,0,1-.445-.875l5.214-4.05L6.345,14.406a.5.5,0,0,1-.564-.822l3.552-2.861L7.038,12.048a.5.5,0,0,1-.573-.815l1.76-1.49a.488.488,0,0,1-.214-.2.5.5,0,0,1,.182-.683l3.412-1.969a.5.5,0,0,1,.574.814l-.816.69,3.067-1.77a.5.5,0,0,1,.563.822l-3.554,2.863,5.372-3.1a.5.5,0,0,1,.556.827l-5.215,4.052,6.536-3.774a.5.5,0,0,1,.529.849L19,9.312l.486-.281a.5.5,0,0,1,.545.837l-6.083,4.438,6.64-3.834a.5.5,0,0,1,.537.841l-5.507,3.866,5.651-3.262a.5.5,0,0,1,.533.845l-4.976,3.421,4.811-2.778a.5.5,0,0,1,.532.846L17.11,17.709l4.566-2.635a.5.5,0,0,1,.524.851l-1.017.667.5-.288a.5.5,0,0,1,.527.848l-2.746,1.827L21.686,17.7a.5.5,0,0,1,.54.84L14.9,23.756l6.8-3.924a.5.5,0,0,1,.526.85l-2.176,1.439,1.653-.954a.5.5,0,0,1,.528.849l-2.991,1.993L21.7,22.586a.5.5,0,0,1,.527.85l-2.454,1.627,1.93-1.115a.5.5,0,0,1,.525.851l-1.475.97.952-.55a.5.5,0,0,1,.525.85l-1.159.759.636-.366a.5.5,0,0,1,.543.838l-7.936,5.725,7.4-4.269a.5.5,0,0,1,.54.84L15.4,34.463l6.313-3.645a.5.5,0,0,1,.538.841l-4.818,3.4,4.283-2.473a.5.5,0,0,1,.541.839l-2.86,2.052,2.321-1.339a.5.5,0,0,1,.558.826l-2.625,2.061,2.069-1.193a.5.5,0,0,1,.621.768l-2.121,2.355,1.5-.867a.5.5,0,0,1,.641.744l-.55.691a.5.5,0,0,1,.122.916l-1.659.957a.5.5,0,0,1-.641-.744l.3-.381L17.983,41.4a.5.5,0,0,1-.621-.767l2.12-2.355L14.073,41.4a.5.5,0,0,1-.558-.826l2.626-2.062-5,2.888A.5.5,0,0,1,10.886,41.47Z" fill="#a53c50"/><path d="M3.6,36.47a.5.5,0,0,1-.275-.918l3.837-2.521L2.046,35.984a.5.5,0,0,1-.522-.852l3.705-2.4-3.87,2.234a.5.5,0,0,1-.531-.846l9.643-6.561L1.28,32.865a.5.5,0,0,1-.524-.85l6.51-4.282L1.28,31.189a.5.5,0,0,1-.526-.849l7.53-5-7,4.043a.5.5,0,0,1-.52-.854l3.052-1.959L1.28,28.034a.5.5,0,0,1-.535-.844l9.7-6.727L1.28,25.753a.5.5,0,0,1-.526-.85L4.2,22.62,1.28,24.308a.5.5,0,0,1-.529-.848l2.667-1.8L1.28,22.9a.5.5,0,0,1-.551-.832l4.678-3.524L1.28,20.924a.5.5,0,0,1-.579-.81l3.543-3.093L1.28,18.731a.5.5,0,0,1-.593-.8L2.1,16.609l-.816.471a.5.5,0,0,1-.651-.731l.642-.862a.5.5,0,0,1-.2-.93L2.726,13.6a.5.5,0,0,1,.651.731l-.5.674L5.32,13.594a.5.5,0,0,1,.593.8L4.506,15.715l3.682-2.126a.5.5,0,0,1,.58.809L5.224,17.492,12,13.583a.5.5,0,0,1,.551.832L7.87,17.938l7.554-4.361a.5.5,0,0,1,.529.848l-2.668,1.8,4.588-2.649a.5.5,0,0,1,.526.85l-3.453,2.286,5.438-3.14a.5.5,0,0,1,.535.844l-9.7,6.728L21.666,15.11a.5.5,0,0,1,.521.854l-3.045,1.955,2.53-1.461a.5.5,0,0,1,.526.85l-7.53,5,7.011-4.048a.5.5,0,0,1,.524.85L15.679,23.4l6.008-3.467a.5.5,0,0,1,.531.845l-9.637,6.557,9.113-5.261a.5.5,0,0,1,.522.853l-3.711,2.4,3.2-1.845a.5.5,0,0,1,.525.851l-3.84,2.522,3.322-1.918a.5.5,0,0,1,.54.84l-6.368,4.54,5.836-3.369a.5.5,0,0,1,.556.828l-5.227,4.037,4.68-2.7a.5.5,0,0,1,.577.811l-3.448,2.982,2.879-1.662a.5.5,0,0,1,.6.792L20.812,33.5l.927-.535a.5.5,0,0,1,.717.612L21.948,34.9a.511.511,0,0,1,.484.248.5.5,0,0,1-.184.683l-1,.577a.5.5,0,0,1-.717-.613l.483-1.248L17.789,36.4a.5.5,0,0,1-.6-.792l1.519-1.466L14.8,36.4a.5.5,0,0,1-.577-.81l3.447-2.983L11.1,36.4a.5.5,0,0,1-.556-.828l5.226-4.037L7.34,36.4a.5.5,0,0,1-.54-.839l6.369-4.542L3.849,36.4A.5.5,0,0,1,3.6,36.47Z" fill="#d0e0ef"/><path d="M3.546,36.47a.5.5,0,0,1-.279-.915L5.7,33.917l-3.635,2.1a.5.5,0,0,1-.53-.847l5.035-3.4a.5.5,0,0,1-.315-.21.5.5,0,0,1,.1-.674l6.16-4.842a.5.5,0,0,1,.243-.519l1.606-.927a.5.5,0,0,1,.559.826l-2.446,1.922,4.394-2.536a.5.5,0,0,1,.53.846L13.85,28.06,17.943,25.7a.5.5,0,0,1,.53.848l-2.449,1.644,2.9-1.672a.5.5,0,0,1,.535.842l-3.182,2.211L20,27.419a.5.5,0,0,1,.559.826l-4.784,3.746,5.735-3.31a.5.5,0,0,1,.539.84l-.814.576.469-.271a.5.5,0,0,1,.545.836l-.435.318a.5.5,0,0,1,.508.826l-1.887,1.952,1.293-.745a.5.5,0,0,1,.717.611l-.49,1.282a.5.5,0,0,1,.288.933l-.979.564a.5.5,0,0,1-.575-.053.5.5,0,0,1-.142-.559l.462-1.209L17.857,36.4a.5.5,0,0,1-.609-.78l1.886-1.951L14.4,36.4a.5.5,0,0,1-.545-.836l.34-.249L12.315,36.4a.5.5,0,0,1-.539-.84l.811-.574L10.138,36.4a.5.5,0,0,1-.559-.826l4.785-3.747L6.441,36.4a.5.5,0,0,1-.535-.842L9.09,33.347,3.8,36.4A.5.5,0,0,1,3.546,36.47Z" fill="#c1d2e0"/><path d="M15.427,26.073a.5.5,0,0,1-.338-.868l3.158-2.9L13.77,24.891a.5.5,0,0,1-.552-.831l1.968-1.489L12.706,24a.5.5,0,0,1-.559-.825l3.967-3.12-4.809,2.776a.5.5,0,0,1-.555-.829l4.79-3.674L9.847,21.618a.5.5,0,0,1-.556-.828l3.414-2.639L8.56,20.544A.5.5,0,0,1,8,19.715L9.976,18.2l-2.5,1.444a.5.5,0,0,1-.561-.825l1.213-.961-1.65.953a.5.5,0,0,1-.635-.752l1.832-2.2-2.8,1.616a.5.5,0,0,1-.611-.779l.47-.493-.817.472a.5.5,0,0,1-.68-.689l.335-.56-.681.392a.5.5,0,0,1-.736-.551l.051-.21-.135.078a.5.5,0,0,1-.5-.865L2.72,13.6a.5.5,0,0,1,.735.551l-.051.209L4.733,13.6a.5.5,0,0,1,.68.688l-.335.561L7.251,13.59a.5.5,0,0,1,.611.778l-.47.493L9.6,13.587a.5.5,0,0,1,.634.752L8.4,16.54l5.129-2.96a.5.5,0,0,1,.561.824l-1.212.961,3.1-1.789a.5.5,0,0,1,.555.829l-1.972,1.52,4.075-2.353a.5.5,0,0,1,.555.828L15.78,17.038l5.88-3.394a.5.5,0,0,1,.555.829l-4.792,3.674L21.67,15.7a.5.5,0,0,1,.559.825l-3.966,3.12,3.416-1.972a.5.5,0,0,1,.551.831l-1.964,1.485,1.42-.819a.5.5,0,0,1,.587.8l-4.225,3.88a.482.482,0,0,1,.123.142.5.5,0,0,1-.183.683l-2.311,1.334A.491.491,0,0,1,15.427,26.073Z" fill="#e9f4ff"/><path d="M34.565,11.494a.5.5,0,0,1-.3-.9L39.48,6.614l-7.2,4.157a.5.5,0,0,1-.535-.844l3.471-2.41L32.28,9.211a.5.5,0,0,1-.541-.839L34.215,6.6,32.28,7.718a.5.5,0,0,1-.572-.816l3.1-2.607L32.28,5.753a.5.5,0,0,1-.623-.766l1.757-1.965-1.134.654A.5.5,0,0,1,31.592,3l.441-.805a.5.5,0,0,1-.2-.93L32.994.6a.5.5,0,0,1,.6.075.5.5,0,0,1,.089.6l-.355.646L35.614.6a.5.5,0,0,1,.623.765L34.481,3.328,39.211.6a.5.5,0,0,1,.572.815l-3.1,2.608L42.614.6a.5.5,0,0,1,.541.839L40.683,3.205l4.4-2.542a.5.5,0,0,1,.535.844L42.146,3.921,45.72,1.857a.5.5,0,0,1,.553.831l-5.215,3.98L45.72,3.977a.5.5,0,0,1,.548.834l-1.83,1.354,1.282-.739a.5.5,0,0,1,.605.785L43.879,8.677,45.72,7.614a.5.5,0,0,1,.625.1.5.5,0,0,1,.023.633l-.723.958.075-.043a.5.5,0,0,1,.5.865l-2.211,1.276a.5.5,0,0,1-.649-.734l.724-.958-2.943,1.7a.5.5,0,0,1-.606-.785L42.982,8.16l-5.648,3.261a.5.5,0,0,1-.548-.834l1.825-1.352-3.8,2.192A.491.491,0,0,1,34.565,11.494Z" fill="#a53c50"/><path d="M32.336,22.447a.5.5,0,0,1-.4-.8l1.053-1.364-2.578,1.489a.5.5,0,0,1-.614-.776l1.726-1.838-2.092,1.208a.5.5,0,0,1-.581-.807l.374-.33a.5.5,0,0,1-.541-.814l.7-.726a.5.5,0,0,1-.026-.88l2.05-1.184a.5.5,0,0,1,.609.78l-.134.139,1.13-.651a.5.5,0,0,1,.581.807l-.351.31.713-.411a.5.5,0,0,1,.614.775L32.85,19.206l1.839-1.061a.5.5,0,0,1,.646.738l-1.08,1.4a.5.5,0,0,1,.381.915l-2.05,1.184A.489.489,0,0,1,32.336,22.447Z" fill="#a53c50"/><path d="M59.534,18.2C60.272,8.84,55.293,5.692,46.489,6.475,46.754.728,46.53-.219,40.407.4c-2.1,0-4.2-.01-6.307,0-.961,0-1.855-.09-2.381.895-.669,1.428-.055,3.626-.167,5.114-5.6.3-12.835-.582-17.985.316A9.219,9.219,0,0,0,5.61,13.4c-1.556-.006-2.885-.063-3.819.557-.268-.038-.544.275-.61.6C-.5,17.489.649,21.764.55,25.011c.1,3.249-1,7.455.588,10.427a.406.406,0,0,0,.482.511c.9.7,2.217.654,3.78.651-.03,2.364-.151,4.257,2.6,4.849,3.472.654,8.017.183,11.524-.143,2.087.589,4.732.028,6.991.216V53.265c-.2,3.6-.036,7.146,4.627,6.2,3.612.042,8.284,1.123,8.453-3.592.17-4.77.015-9.572,0-14.347C66.6,41.2,58.344,45.645,59.534,18.2ZM32.448,2.977C32.288.589,36.842,1.826,38.4,1.6c1.367,0,6.39-.831,7.151.549.522,1.041-.087,3.554.015,4.694a.464.464,0,0,0,.045.583c.087,1.134.154,2.727-.655,2.979H32.435c-.015-.977-.049-1.968-.08-2.965a.734.734,0,0,0-.017-.768A28.414,28.414,0,0,1,32.448,2.977Zm2,16.139c-.177,3.3-4.9,2.866-4.892-.232C29.567,15.558,34.281,16.05,34.446,19.116ZM21.094,13.4H6.814A7.383,7.383,0,0,1,21.094,13.4Zm.31,14.671-3.627-3.043A26.923,26.923,0,0,0,21.4,21.867ZM6.768,14.6H21.339c.25,1.989-.006,4.025.065,6.027-1.418,1.268-3.055,3.2-4.692,3.909-1.993.862-3.212-.835-4.629-2.022L2.994,14.9A10.645,10.645,0,0,1,6.768,14.6ZM1.45,16.637a2.961,2.961,0,0,1,.54-1.016c3.752,3.16,7.386,6.555,11.335,9.45L2.013,34.56C.3,32.1,1.55,27.8,1.45,24.989,1.45,22.62.726,18.905,1.45,16.637Zm1.3,18.476,11.418-9.578a3.373,3.373,0,0,0,2.537.03L21.4,29.5v5.9C15.269,35.128,8.766,35.937,2.754,35.113ZM17,40.551C13.41,40.383,5.976,42.305,6.6,36.6H21.4C21.472,40.032,20.023,40.594,17,40.551ZM27.489,56.313c-.388-4.793.23-9.862.012-14.706,1.382.387,3.476.034,5.01-.031-.224,5.095.371,10.44,0,15.47C31.486,59.817,28.054,58.171,27.489,56.313Zm9.475,2.229a11.141,11.141,0,0,1-4.32.1c1.147-1.248.845-3.518.845-5.484V41.522h4.92V53.364C38.409,55,39.058,57.753,36.964,58.542ZM56.555,40.478c-7.62.453-15.527-.273-23.21,0a.285.285,0,0,0-.185-.019c-2.057-.022-4.17-.075-6.217.019H21.394a4.072,4.072,0,0,0,1.248-2.891H54.931c.573,0,.781-1.174.138-1.174H22.694c-.17-5.178-.076-10.533-.1-15.74.348-4.477.34-10.98-4.268-13.084H31.552q0,3.988,0,7.976c-4.231.653-4,7.043.451,6.932,4.251-.123,4.787-6.548.445-6.976V11.6c4.2-.011,8.421.019,12.619-.011,1.925-.509,1.243-2.558,1.4-4.062,11.252-.264,12.75,4.44,12,14.79q0,6.171,0,12.344C58.466,36.916,59.236,39.743,56.555,40.478Z" fill="#262626"/></svg>
