<svg id="Master_Line" enable-background="new 0 0 512 512" height="512" viewBox="0 0 512 512" width="512" xmlns="http://www.w3.org/2000/svg"><g fill="#ebeced"><path d="m288.6 377.77h-.13c-7.64 0-13.83-6.19-13.83-13.83v-223.11c0-7.64 6.19-13.83 13.83-13.83h.13c7.64 0 13.83 6.19 13.83 13.83v223.11c.01 7.64-6.19 13.83-13.83 13.83z"/><path d="m462.61 189.49h-65.24c-3.87 0-7-3.13-7-7v-36.05c0-3.87 3.13-7 7-7h65.24c3.87 0 7 3.13 7 7v36.05c0 3.87-3.14 7-7 7z"/><path d="m85.25 229.38c0-34.32 11.32-64.5 28.44-81.94-18.6 9.27-33.11 25.98-39.22 46.9-7.26 24.88-1.33 51.42 15.09 70.75-2.78-11.06-4.31-23.11-4.31-35.71z"/><path d="m210.33 229.38c0 12.6-1.53 24.65-4.3 35.71 16.42-19.33 22.35-45.87 15.09-70.75-6.11-20.92-20.62-37.63-39.22-46.9 17.12 17.44 28.43 47.62 28.43 81.94z"/></g><path d="m171.81 162.34-3.52-19.27c-6.46-2.36-13.32-3.62-20.37-3.63h-.24c-7.06 0-13.91 1.27-20.37 3.63l-3.52 19.27c-8.5 46.49-5.59 94.75 8.41 139.47l8.66 27.67h6.94 6.94l8.66-27.67c13.99-44.73 16.9-92.98 8.41-139.47z" fill="#5cd1fd"/><g fill="#2a3853"><path d="m486 108.05h-460c-7.44 0-13.5 6.06-13.5 13.5v214.82c0 1.93 1.57 3.5 3.5 3.5s3.5-1.57 3.5-3.5v-214.82c0-3.58 2.92-6.5 6.5-6.5h259.04v21.5c0 1.93 1.57 3.5 3.5 3.5s3.5-1.57 3.5-3.5v-21.5h193.96c3.58 0 6.5 2.92 6.5 6.5v268.91c0 3.58-2.92 6.5-6.5 6.5h-460c-3.58 0-6.5-2.92-6.5-6.5v-21.97c0-1.93-1.57-3.5-3.5-3.5s-3.5 1.57-3.5 3.5v21.97c0 7.44 6.06 13.5 13.5 13.5h460c7.44 0 13.5-6.06 13.5-13.5v-268.91c0-7.45-6.06-13.5-13.5-13.5z"/><path d="m473.11 236.12c0-1.93-1.57-3.5-3.5-3.5h-150.33c-1.93 0-3.5 1.57-3.5 3.5s1.57 3.5 3.5 3.5h150.33c1.93 0 3.5-1.56 3.5-3.5z"/><path d="m334.83 273.06c-1.93 0-3.5 1.57-3.5 3.5s1.57 3.5 3.5 3.5h119.23c1.93 0 3.5-1.57 3.5-3.5s-1.57-3.5-3.5-3.5z"/><path d="m319.28 320.49h150.33c1.93 0 3.5-1.57 3.5-3.5s-1.57-3.5-3.5-3.5h-150.33c-1.93 0-3.5 1.57-3.5 3.5s1.56 3.5 3.5 3.5z"/><path d="m334.83 353.93c-1.93 0-3.5 1.57-3.5 3.5s1.57 3.5 3.5 3.5h119.23c1.93 0 3.5-1.57 3.5-3.5s-1.57-3.5-3.5-3.5z"/><path d="m288.54 190.05c1.93 0 3.5-1.57 3.5-3.5v-25c0-1.93-1.57-3.5-3.5-3.5s-3.5 1.57-3.5 3.5v25c0 1.93 1.57 3.5 3.5 3.5z"/><path d="m285.04 336.55c0 1.93 1.57 3.5 3.5 3.5s3.5-1.57 3.5-3.5v-25c0-1.93-1.57-3.5-3.5-3.5s-3.5 1.57-3.5 3.5z"/><path d="m285.04 286.55c0 1.93 1.57 3.5 3.5 3.5s3.5-1.57 3.5-3.5v-25c0-1.93-1.57-3.5-3.5-3.5s-3.5 1.57-3.5 3.5z"/><path d="m285.04 386.55c0 1.93 1.57 3.5 3.5 3.5s3.5-1.57 3.5-3.5v-25c0-1.93-1.57-3.5-3.5-3.5s-3.5 1.57-3.5 3.5z"/><path d="m285.04 236.55c0 1.93 1.57 3.5 3.5 3.5s3.5-1.57 3.5-3.5v-25c0-1.93-1.57-3.5-3.5-3.5s-3.5 1.57-3.5 3.5z"/><path d="m76.76 271.1c-1.8-.67-3.71-1.02-5.66-1.02-8.3 0-15.16 6.25-16.12 14.3-6.87.84-12.21 6.71-12.21 13.8 0 .93.37 1.82 1.03 2.48 1.04 1.04 1.13 1.04 5.82 1.05 1.67.01 46.15-.02 65.36-.03 1.91 4.9 9.64 26.66 9.64 26.66.88 2.5 3.1 4.25 5.69 4.57l2.37 13.06h-2.69c-3.82 0-6.93 3.11-6.93 6.93v18.22c0 3.82 3.11 6.93 6.93 6.93h35.62c3.82 0 6.93-3.11 6.93-6.93v-18.22c0-3.82-3.11-6.93-6.93-6.93h-2.69l2.37-13.06c2.58-.32 4.8-2.07 5.68-4.57l7.5-21.39c4.12-11.76 11.34-22.22 20.86-30.25 24.12-20.34 33.99-53.06 25.15-83.34-.38-1.3-.8-2.58-1.24-3.85h25.17c3.83-.05 4.4-2.24 4.4-3.54 0-7.97-6.1-14.54-13.88-15.29-.89-9.11-8.6-16.26-17.94-16.26-1.93 0-3.5 1.57-3.5 3.5s1.57 3.5 3.5 3.5c6.08 0 11.03 4.95 11.03 11.03 0 .38-.03.8-.08 1.26-.11.99.2 1.98.87 2.73s1.61 1.17 2.61 1.17h2.03c3.38 0 6.3 2.02 7.62 4.91-2.94.01-19-.01-24.64-.01-5.5-12.07-13.88-22.51-24.66-30.61-13.91-10.43-30.45-15.95-47.84-15.96h-.28c-17.39.01-33.93 5.53-47.84 15.96s-23.84 24.77-28.71 41.46c-7.25 24.82-2.14 51.1 13.59 71.29-3.11 1.44-5.84 3.64-7.93 6.45zm88.78 99.95h-35.48v-18.08h6.81 21.87 6.81v18.08zm-25.75-25.08-2.36-13h20.74l-2.36 13zm-58.62-68.73c2.36-4.63 7.05-7.5 12.23-7.5 7.57 0 13.73 6.16 13.73 13.73 0 1.93 1.57 3.5 3.5 3.5s3.5-1.57 3.5-3.5c0-11.43-9.3-20.73-20.73-20.73-.41 0-.82.01-1.23.04-15.88-18.71-21.25-43.81-14.35-67.45 9-30.83 37.72-52.37 69.83-52.38h.27c32.11.01 60.83 21.55 69.83 52.38 8.07 27.63-.94 57.47-22.94 76.03-10.48 8.84-18.42 20.35-22.95 33.28l-7.43 21.34h-2.1c-.03 0-.06 0-.09 0l-28.54.04c-.31-.04-.63-.05-.96 0h-1.52s-5.89-16.58-8.77-24.35h1.23c1.93 0 3.5-1.57 3.5-3.5s-1.57-3.5-3.5-3.5c-17.62.03-59.44.07-72.96.04 1.2-2.05 3.42-3.44 5.97-3.44h1.78c1 0 1.95-.42 2.61-1.17.66-.74.98-1.73.87-2.72-.04-.4-.07-.74-.07-1.06 0-5.09 4.14-9.24 9.24-9.24 1.79 0 3.53.52 5.03 1.5.83.54 1.85.71 2.81.45.95-.26 1.76-.91 2.21-1.79z"/></g><path d="m216.82 85.76c-1.27 0-2.49-.69-3.11-1.89l-11.98-23.12c-.89-1.72-.22-3.83 1.5-4.72s3.83-.22 4.72 1.5l11.98 23.12c.89 1.72.22 3.83-1.5 4.72-.52.27-1.07.39-1.61.39z" fill="#f46e94"/><path d="m296.09 85.78c-.5 0-1-.11-1.48-.33-1.75-.82-2.51-2.9-1.69-4.65l11.04-23.58c.82-1.75 2.9-2.51 4.65-1.69s2.51 2.9 1.69 4.65l-11.04 23.58c-.59 1.28-1.85 2.02-3.17 2.02z" fill="#f46e94"/><path d="m204.83 456.36c-.54 0-1.09-.13-1.61-.39-1.72-.89-2.39-3-1.5-4.72l11.98-23.12c.89-1.72 3-2.39 4.72-1.5s2.39 3 1.5 4.72l-11.98 23.12c-.62 1.2-1.84 1.89-3.11 1.89z" fill="#f46e94"/><path d="m307.13 456.8c-1.32 0-2.58-.75-3.17-2.02l-11.04-23.58c-.82-1.75-.06-3.83 1.69-4.65s3.83-.06 4.65 1.69l11.04 23.58c.82 1.75.06 3.83-1.69 4.65-.48.23-.98.33-1.48.33z" fill="#f46e94"/></svg>